<svg xmlns="http://www.w3.org/2000/svg" width="225" height="225" viewBox="0 0 225 225">
<g>
<path d="M 0.03 54.25 C0.06,102.17 0.23,108.27 1.53,106.56 C2.34,105.49 3.06,103.69 3.13,102.56 C3.20,101.43 3.36,98.25 3.48,95.50 C3.83,87.48 5.05,81.88 7.72,76.00 C14.47,61.13 16.42,57.32 18.37,55.18 C19.53,53.90 21.39,50.97 22.50,48.68 C23.61,46.38 25.08,44.61 25.76,44.75 C26.44,44.89 27.00,44.10 27.00,43.00 C27.00,40.95 28.94,38.65 32.92,36.00 C34.16,35.17 35.83,33.24 36.63,31.71 C37.44,30.17 39.29,28.37 40.75,27.71 C42.21,27.04 44.42,25.49 45.66,24.25 C46.90,23.01 48.59,22.00 49.42,22.00 C50.25,22.00 52.41,20.73 54.22,19.17 C59.89,14.27 79.50,5.02 84.35,4.95 C86.08,4.93 88.85,4.32 90.50,3.60 C92.54,2.71 94.29,2.59 95.99,3.21 C99.29,4.43 105.00,3.32 105.00,1.45 C105.00,0.20 97.77,0.00 52.50,0.00 L 172.29 0.00 C123.12,0.00 119.68,0.11 121.24,1.66 C122.80,3.23 129.61,4.08 139.77,3.97 C141.81,3.95 143.26,4.51 143.63,5.47 C143.99,6.41 145.47,7.00 147.47,7.00 C149.26,7.00 151.87,7.90 153.27,9.00 C154.67,10.10 156.57,11.00 157.50,11.00 C158.43,11.00 160.33,11.90 161.73,13.00 C163.13,14.10 164.87,15.00 165.60,15.00 C166.33,15.00 169.21,17.02 172.00,19.50 C174.79,21.98 177.85,24.00 178.80,24.00 C181.48,24.00 198.46,41.01 201.36,46.59 C202.76,49.29 205.05,52.56 206.45,53.85 C207.85,55.15 209.00,56.77 209.00,57.47 C209.00,58.16 210.11,60.36 211.47,62.36 C212.83,64.36 213.68,66.68 213.36,67.51 C213.04,68.34 213.50,70.12 214.39,71.47 C215.28,72.82 216.00,74.83 216.00,75.93 C216.00,77.09 217.16,78.57 218.75,79.43 C220.26,80.25 221.03,80.94 220.47,80.96 C219.10,81.01 219.29,85.77 220.80,89.31 C221.46,90.86 222.28,94.57 222.64,97.56 C224.32,111.90 225.00,98.68 225.00,51.50 L 225.00 174.00 C225.00,140.67 224.65,123.00 224.00,123.00 C223.45,123.00 223.00,123.72 223.00,124.61 C223.00,129.72 217.11,151.67 215.34,153.13 C214.60,153.75 214.00,155.54 214.00,157.12 C214.00,158.71 213.52,160.00 212.94,160.00 C212.36,160.00 210.95,162.14 209.81,164.75 C208.66,167.36 206.21,171.19 204.36,173.25 C202.51,175.32 201.00,177.67 201.00,178.47 C201.00,180.69 181.02,200.46 176.89,202.33 C174.90,203.23 172.65,204.72 171.89,205.64 C171.12,206.57 168.14,208.37 165.25,209.65 C162.36,210.93 160.00,212.43 160.00,212.99 C160.00,213.54 158.71,214.00 157.12,214.00 C155.54,214.00 153.68,214.68 153.00,215.50 C152.32,216.32 150.57,217.02 149.13,217.04 C147.68,217.05 145.40,217.68 144.05,218.43 C142.70,219.17 141.12,219.60 140.52,219.37 C139.93,219.14 136.80,219.87 133.56,220.98 C130.33,222.09 126.18,223.00 124.34,223.00 C122.50,223.00 121.00,223.45 121.00,224.00 C121.00,224.65 139.00,225.00 173.00,225.00 L 51.50 225.00 C80.03,225.00 103.00,224.61 103.00,224.13 C103.00,223.65 101.03,223.04 98.63,222.77 C96.22,222.50 92.78,221.54 90.97,220.64 C89.07,219.68 85.26,219.00 81.88,219.00 C75.81,219.00 66.63,215.67 64.02,212.52 C63.31,211.67 61.10,210.21 59.11,209.29 C57.13,208.38 54.38,206.52 53.00,205.17 C51.62,203.82 48.96,202.07 47.07,201.27 C43.73,199.86 32.00,190.35 32.00,189.06 C32.00,188.70 29.75,185.98 27.00,183.00 C24.25,180.02 22.00,176.86 22.00,175.97 C22.00,175.08 20.88,173.29 19.50,172.00 C18.12,170.71 17.00,168.89 17.00,167.96 C17.00,167.03 16.15,165.19 15.11,163.87 C14.07,162.55 12.00,158.55 10.51,154.98 C9.01,151.42 7.30,147.90 6.70,147.16 C5.31,145.45 3.79,135.40 3.63,126.79 C3.53,121.86 3.04,119.61 1.75,118.33 C0.08,116.65 0.00,119.15 0.00,170.79 L 0.00 0.00 ZM 104.00 171.05 L 104.00 205.90 L 107.00 204.85 C108.65,204.27 110.00,203.48 110.00,203.07 C110.00,202.67 111.31,200.35 112.90,197.92 C114.50,195.49 116.39,191.54 117.09,189.15 C117.82,186.67 119.40,184.13 120.76,183.24 C122.36,182.19 122.98,181.04 122.64,179.74 C122.12,177.75 124.01,173.56 129.73,164.06 C131.53,161.07 133.00,157.78 133.00,156.76 C133.00,155.74 134.12,153.78 135.50,152.41 C136.88,151.03 138.04,148.69 138.08,147.20 C138.12,145.72 139.46,142.48 141.05,140.00 C145.49,133.07 149.00,126.23 149.00,124.49 C149.00,123.62 150.12,121.78 151.50,120.41 C152.88,119.03 154.00,116.82 154.00,115.50 C154.00,113.15 158.34,104.93 162.11,100.13 C164.24,97.43 164.61,92.01 162.80,90.20 C161.97,89.37 156.68,89.00 145.55,88.98 C136.72,88.98 128.83,88.54 128.01,88.02 C126.74,87.22 126.49,82.49 126.39,56.79 C126.37,53.39 126.36,50.30 126.35,47.49 C126.28,24.34 126.26,20.49 124.96,19.98 C124.69,19.88 124.38,19.91 124.01,19.95 C123.78,19.98 123.53,20.00 123.25,20.00 C120.89,20.01 120.24,20.68 118.70,24.75 C115.99,31.90 112.77,38.11 110.18,41.19 C108.91,42.71 106.96,46.52 105.86,49.66 C104.75,52.80 102.98,56.48 101.93,57.82 C100.87,59.17 99.99,61.00 99.98,61.88 C99.97,62.77 99.08,64.62 98.00,66.00 C96.92,67.38 96.03,69.07 96.02,69.76 C96.01,70.45 94.93,71.95 93.61,73.09 C92.20,74.31 90.97,76.78 90.60,79.12 C89.92,83.38 88.53,86.25 85.75,89.17 C84.79,90.17 84.00,91.62 84.00,92.37 C84.00,94.10 79.28,102.83 76.90,105.50 C75.18,107.43 72.66,115.99 73.55,116.88 C73.79,117.12 73.20,117.88 72.24,118.55 C71.28,119.23 69.16,122.36 67.53,125.50 L 64.55 131.22 L 66.89 133.11 C68.96,134.79 71.02,135.00 85.03,135.00 C93.72,135.00 101.55,135.27 102.42,135.61 C103.82,136.14 104.00,140.21 104.00,171.05 Z" fill="rgb(4,149,136)"/>
<path d="M 104.00 171.05 C104.00,140.21 103.82,136.14 102.42,135.61 C101.55,135.27 93.72,135.00 85.03,135.00 C71.02,135.00 68.96,134.79 66.89,133.11 L 64.55 131.22 L 67.53 125.50 C69.16,122.36 71.28,119.23 72.24,118.55 C73.20,117.88 73.79,117.12 73.55,116.88 C72.66,115.99 75.18,107.43 76.90,105.50 C79.28,102.83 84.00,94.10 84.00,92.37 C84.00,91.62 84.79,90.17 85.75,89.17 C88.53,86.25 89.92,83.38 90.60,79.12 C90.97,76.78 92.20,74.31 93.61,73.09 C94.93,71.95 96.01,70.45 96.02,69.76 C96.03,69.07 96.92,67.38 98.00,66.00 C99.08,64.62 99.97,62.77 99.98,61.88 C99.99,61.00 100.87,59.17 101.93,57.82 C102.98,56.48 104.75,52.80 105.86,49.66 C106.96,46.52 108.91,42.71 110.18,41.19 C112.77,38.11 115.99,31.90 118.70,24.75 C120.24,20.68 120.89,20.01 123.25,20.00 C123.53,20.00 123.78,19.98 124.01,19.95 C124.38,19.91 124.69,19.88 124.96,19.98 C126.26,20.49 126.28,24.34 126.35,47.49 C126.36,50.30 126.37,53.39 126.39,56.79 C126.49,82.49 126.74,87.22 128.01,88.02 C128.83,88.54 136.72,88.98 145.55,88.98 C156.68,89.00 161.97,89.37 162.80,90.20 C164.61,92.01 164.24,97.43 162.11,100.13 C158.34,104.93 154.00,113.15 154.00,115.50 C154.00,116.82 152.88,119.03 151.50,120.41 C150.12,121.78 149.00,123.62 149.00,124.49 C149.00,126.23 145.49,133.07 141.05,140.00 C139.46,142.48 138.12,145.72 138.08,147.20 C138.04,148.69 136.88,151.03 135.50,152.41 C134.12,153.78 133.00,155.74 133.00,156.76 C133.00,157.78 131.53,161.07 129.73,164.06 C124.01,173.56 122.12,177.75 122.64,179.74 C122.98,181.04 122.36,182.19 120.76,183.24 C119.40,184.13 117.82,186.67 117.09,189.15 C116.39,191.54 114.50,195.49 112.90,197.92 C111.31,200.35 110.00,202.67 110.00,203.07 C110.00,203.48 108.65,204.27 107.00,204.85 L 104.00 205.90 ZM 106.00 168.08 C106.00,194.76 106.29,203.07 107.19,202.77 C108.78,202.24 162.98,93.70 162.12,92.77 C161.75,92.37 153.36,91.92 143.47,91.77 L 125.50 91.50 L 125.24 56.75 C125.03,29.95 124.69,22.00 123.74,22.00 C123.06,22.01 117.91,31.12 112.30,42.25 C106.69,53.39 94.20,77.86 84.55,96.63 C74.90,115.41 67.00,131.27 67.00,131.88 C67.00,132.67 72.83,133.00 86.50,133.00 L 106.00 133.00 ZM 0.03 54.25 L 0.00 0.00 L 52.50 0.00 C97.77,0.00 105.00,0.20 105.00,1.45 C105.00,3.32 99.29,4.43 95.99,3.21 C94.29,2.59 92.54,2.71 90.50,3.60 C88.85,4.32 86.08,4.93 84.35,4.95 C79.50,5.02 59.89,14.27 54.22,19.17 C52.41,20.73 50.25,22.00 49.42,22.00 C48.59,22.00 46.90,23.01 45.66,24.25 C44.42,25.49 42.21,27.04 40.75,27.71 C39.29,28.37 37.44,30.17 36.63,31.71 C35.83,33.24 34.16,35.17 32.92,36.00 C28.94,38.65 27.00,40.95 27.00,43.00 C27.00,44.10 26.44,44.89 25.76,44.75 C25.08,44.61 23.61,46.38 22.50,48.68 C21.39,50.97 19.53,53.90 18.37,55.18 C16.42,57.32 14.47,61.13 7.72,76.00 C5.05,81.88 3.83,87.48 3.48,95.50 C3.36,98.25 3.20,101.43 3.13,102.56 C3.06,103.69 2.34,105.49 1.53,106.56 C0.23,108.27 0.06,102.17 0.03,54.25 ZM 121.00 224.00 C121.00,223.45 122.50,223.00 124.34,223.00 C126.18,223.00 130.33,222.09 133.56,220.98 C136.80,219.87 139.93,219.14 140.52,219.37 C141.12,219.60 142.70,219.17 144.05,218.43 C145.40,217.68 147.68,217.05 149.13,217.04 C150.57,217.02 152.32,216.32 153.00,215.50 C153.68,214.68 155.54,214.00 157.12,214.00 C158.71,214.00 160.00,213.54 160.00,212.99 C160.00,212.43 162.36,210.93 165.25,209.65 C168.14,208.37 171.12,206.57 171.89,205.64 C172.65,204.72 174.90,203.23 176.89,202.33 C181.02,200.46 201.00,180.69 201.00,178.47 C201.00,177.67 202.51,175.32 204.36,173.25 C206.21,171.19 208.66,167.36 209.81,164.75 C210.95,162.14 212.36,160.00 212.94,160.00 C213.52,160.00 214.00,158.71 214.00,157.12 C214.00,155.54 214.60,153.75 215.34,153.13 C217.11,151.67 223.00,129.72 223.00,124.61 C223.00,123.72 223.45,123.00 224.00,123.00 C224.65,123.00 225.00,140.67 225.00,174.00 L 225.00 225.00 L 173.00 225.00 C139.00,225.00 121.00,224.65 121.00,224.00 ZM 0.00 0.00 L 0.13 53.25 C0.22,89.08 0.54,104.05 1.13,99.00 C3.90,75.05 14.02,53.49 30.73,35.93 C43.51,22.50 55.27,14.33 71.13,7.88 C77.56,5.26 93.25,1.48 101.00,0.68 C102.93,0.48 80.99,0.25 52.25,0.16 L 0.00 0.00 ZM 224.91 174.75 C224.83,130.00 224.68,125.30 223.50,131.77 C217.02,167.51 195.18,196.85 163.04,212.98 C152.17,218.43 142.70,221.57 131.27,223.49 C124.34,224.65 128.96,224.81 174.25,224.90 L 225.00 225.00 L 224.91 174.75 ZM 220.48 80.58 C220.19,80.29 219.59,79.88 218.75,79.43 C217.16,78.57 216.00,77.09 216.00,75.93 C216.00,74.83 215.28,72.82 214.39,71.47 C213.50,70.12 213.04,68.34 213.36,67.51 C213.68,66.68 212.83,64.36 211.47,62.36 C210.11,60.36 209.00,58.16 209.00,57.47 C209.00,56.77 207.85,55.15 206.45,53.85 C205.05,52.56 202.76,49.29 201.36,46.59 C198.46,41.01 181.48,24.00 178.80,24.00 C177.85,24.00 174.79,21.98 172.00,19.50 C169.21,17.02 166.33,15.00 165.60,15.00 C164.87,15.00 163.13,14.10 161.73,13.00 C160.33,11.90 158.43,11.00 157.50,11.00 C156.57,11.00 154.67,10.10 153.27,9.00 C151.87,7.90 149.26,7.00 147.47,7.00 C145.47,7.00 143.99,6.41 143.63,5.47 C143.26,4.51 141.81,3.95 139.77,3.97 C129.61,4.08 122.80,3.23 121.24,1.66 C119.68,0.11 123.12,0.00 172.29,0.00 L 225.00 0.00 L 173.25 0.13 C140.44,0.21 124.06,0.56 128.50,1.08 C143.57,2.86 161.74,9.78 176.00,19.18 C190.88,28.98 206.97,47.95 214.89,65.00 C216.77,69.04 218.82,74.87 220.48,80.58 ZM 1.75 118.33 C3.04,119.61 3.53,121.86 3.63,126.79 C3.79,135.40 5.31,145.45 6.70,147.16 C7.30,147.90 9.01,151.42 10.51,154.98 C12.00,158.55 14.07,162.55 15.11,163.87 C16.15,165.19 17.00,167.03 17.00,167.96 C17.00,168.89 18.12,170.71 19.50,172.00 C20.88,173.29 22.00,175.08 22.00,175.97 C22.00,176.86 24.25,180.02 27.00,183.00 C29.75,185.98 32.00,188.70 32.00,189.06 C32.00,190.35 43.73,199.86 47.07,201.27 C48.96,202.07 51.62,203.82 53.00,205.17 C54.38,206.52 57.13,208.38 59.11,209.29 C61.10,210.21 63.31,211.67 64.02,212.52 C64.56,213.18 65.39,213.84 66.42,214.48 C66.04,214.31 65.66,214.13 65.27,213.94 C51.96,207.69 45.26,203.18 35.62,194.00 C22.96,181.94 14.24,169.22 8.15,153.88 C5.22,146.50 1.37,130.32 0.69,122.50 C0.49,120.30 0.26,142.46 0.17,171.75 L 0.00 225.00 L 50.75 224.92 L 78.75 224.87 C70.85,224.95 61.52,225.00 51.50,225.00 L 0.00 225.00 L 0.00 170.79 C0.00,119.15 0.08,116.65 1.75,118.33 ZM 99.56 224.44 L 92.15 222.96 C82.77,221.08 79.14,220.15 72.35,217.19 C75.55,218.28 79.05,219.00 81.88,219.00 C85.26,219.00 89.07,219.68 90.97,220.64 C92.78,221.54 96.22,222.50 98.63,222.77 C101.03,223.04 103.00,223.65 103.00,224.13 C103.00,224.24 101.78,224.35 99.56,224.44 ZM 222.64 97.56 C222.28,94.57 221.46,90.86 220.80,89.31 C219.29,85.77 219.10,81.01 220.47,80.96 C220.51,80.96 220.55,80.95 220.58,80.94 C222.07,86.11 223.24,91.16 223.65,94.64 C223.87,96.57 224.14,98.26 224.36,99.21 C223.97,104.92 223.41,104.16 222.64,97.56 ZM 225.00 58.09 C225.00,55.94 225.00,53.74 225.00,51.50 C225.00,53.78 225.00,55.97 225.00,58.09 Z" fill="rgb(19,143,129)"/>
<path d="M 211.77 58.92 C205.42,47.58 196.06,35.98 186.29,27.22 C196.65,36.09 205.30,46.80 211.77,58.92 ZM 67.37 9.48 C53.36,15.69 42.48,23.58 30.73,35.93 C20.99,46.17 13.48,57.76 8.37,70.40 C13.49,57.28 20.72,46.33 31.07,35.55 C42.69,23.45 54.00,15.20 67.37,9.48 ZM 6.04 147.64 C4.70,143.46 3.54,139.09 2.55,134.50 L 0.54 125.19 C0.59,122.93 0.64,121.95 0.69,122.50 C1.21,128.53 3.62,139.53 6.04,147.64 ZM 98.80 0.54 C100.64,0.59 101.44,0.64 101.00,0.68 C95.19,1.28 84.91,3.56 77.42,5.76 C81.30,4.54 85.36,3.47 89.66,2.53 ZM 2.31 91.19 C1.83,93.76 1.43,96.37 1.13,99.00 C0.91,100.87 0.73,100.00 0.58,96.35 C0.84,98.44 1.25,96.41 1.93,93.00 C2.06,92.39 2.18,91.79 2.31,91.19 ZM 134.23 1.97 C132.28,1.60 130.37,1.30 128.50,1.08 C127.54,0.97 127.55,0.87 128.49,0.77 ZM 14.10 166.53 C19.59,176.49 26.60,185.42 35.62,194.00 C26.58,185.40 19.54,176.47 14.10,166.53 ZM 220.53 80.63 C220.51,80.62 220.50,80.60 220.48,80.58 C219.76,78.10 218.96,75.59 218.14,73.22 C218.99,75.57 219.76,77.96 220.46,80.39 C220.48,80.47 220.51,80.55 220.53,80.63 ZM 220.61 80.92 C220.94,82.08 221.26,83.31 221.57,84.55 C221.27,83.37 220.93,82.16 220.58,80.94 C220.59,80.94 220.60,80.93 220.61,80.92 Z" fill="rgb(126,196,189)"/>
<path d="M 0.09 174.25 L 0.17 123.50 L 2.55 134.50 C7.85,159.03 17.91,177.14 35.62,194.00 C45.26,203.18 51.96,207.69 65.27,213.94 C77.49,219.69 80.00,220.53 92.15,222.96 L 101.50 224.83 L 50.75 224.92 L 0.00 225.00 L 0.09 174.25 ZM 131.27 223.49 C142.70,221.57 152.17,218.43 163.04,212.98 C195.18,196.85 217.02,167.51 223.50,131.77 C224.68,125.30 224.83,130.00 224.91,174.75 L 225.00 225.00 L 174.25 224.90 C128.96,224.81 124.34,224.65 131.27,223.49 ZM 106.00 168.08 L 106.00 133.00 L 86.50 133.00 C72.83,133.00 67.00,132.67 67.00,131.88 C67.00,131.27 74.90,115.41 84.55,96.63 C94.20,77.86 106.69,53.39 112.30,42.25 C117.91,31.12 123.06,22.01 123.74,22.00 C124.69,22.00 125.03,29.95 125.24,56.75 L 125.50 91.50 L 143.47 91.77 C153.36,91.92 161.75,92.37 162.12,92.77 C162.98,93.70 108.78,202.24 107.19,202.77 C106.29,203.07 106.00,194.76 106.00,168.08 ZM 0.11 50.75 L 0.00 0.00 L 50.25 0.09 L 100.50 0.17 L 89.66 2.53 C65.41,7.82 48.59,17.29 31.07,35.55 C15.32,51.95 6.81,68.73 1.93,93.00 C0.23,101.48 0.23,101.40 0.11,50.75 ZM 223.65 94.64 C223.30,91.69 221.87,85.28 220.46,80.39 C209.01,40.56 176.51,10.85 134.77,2.09 L 125.50 0.14 L 175.25 0.07 L 225.00 0.00 L 225.00 50.00 C225.00,77.50 224.84,100.00 224.64,100.00 C224.44,100.00 223.99,97.59 223.65,94.64 Z" fill="rgb(252,254,254)"/>
</g>
</svg>