<svg xmlns="http://www.w3.org/2000/svg" width="225" height="225" viewBox="0 0 225 225">
<g>
<path d="M 172.00 194.53 C159.24,196.14 145.19,196.42 148.50,195.00 C149.60,194.53 152.41,194.11 154.75,194.07 C157.09,194.03 159.00,193.52 159.00,192.94 C159.00,192.28 156.27,191.94 151.75,192.03 C132.27,192.41 120.65,191.14 114.40,187.95 C112.30,186.88 109.58,186.00 108.36,186.00 C107.14,186.00 105.49,185.35 104.69,184.55 C103.89,183.75 103.01,183.33 102.72,183.61 C102.44,183.90 99.02,182.52 95.13,180.56 C87.16,176.55 86.86,176.46 87.59,178.37 C87.88,179.13 89.78,180.59 91.81,181.62 C93.84,182.66 95.72,183.77 96.00,184.10 C97.68,186.11 111.73,190.33 121.75,191.83 C128.20,192.80 133.00,193.88 132.41,194.24 C131.83,194.60 128.24,194.47 124.43,193.93 C99.79,190.50 80.90,181.18 64.00,164.09 C54.49,154.48 46.40,142.92 39.78,129.50 C33.32,116.40 31.39,111.09 27.53,95.72 C25.62,88.14 23.15,79.87 22.03,77.34 C20.92,74.81 20.00,71.79 20.00,70.62 C20.01,67.33 23.57,62.28 27.21,60.39 C29.02,59.45 29.94,58.49 29.25,58.26 C27.64,57.71 27.64,54.53 29.25,53.26 C29.94,52.72 31.73,51.98 33.24,51.62 C37.13,50.69 39.61,46.63 38.19,43.51 C37.22,41.38 37.46,40.79 40.29,38.43 C45.10,34.41 45.42,33.35 42.54,30.84 C38.22,27.09 39.68,22.00 45.08,22.00 C48.62,22.00 49.80,23.62 50.18,29.02 L 50.50 33.50 L 56.25 33.80 C61.52,34.07 62.00,34.30 62.00,36.43 C62.00,39.54 63.65,40.73 69.82,42.05 C72.67,42.67 75.56,43.94 76.25,44.88 C77.55,46.67 87.68,52.20 92.00,53.49 C97.67,55.17 104.00,58.33 104.00,59.46 C104.00,60.13 105.19,61.22 106.65,61.89 C108.66,62.80 109.02,63.38 108.15,64.25 C107.27,65.13 105.84,65.08 102.24,64.06 C88.93,60.26 88.54,60.73 89.97,79.23 C92.26,109.02 94.66,120.00 101.66,132.75 C104.82,138.50 105.00,141.11 101.98,137.48 C101.28,136.64 100.53,136.14 100.30,136.37 C100.07,136.60 98.72,135.63 97.31,134.22 C95.18,132.09 94.94,131.33 95.89,129.80 C96.62,128.64 96.72,127.32 96.16,126.23 C95.67,125.28 94.24,120.56 92.98,115.75 C90.79,107.35 89.75,105.55 88.66,108.25 C88.29,109.16 88.14,109.13 88.08,108.11 C88.04,107.35 88.79,106.14 89.75,105.43 C91.09,104.44 91.22,103.86 90.33,102.95 C89.65,102.26 89.39,100.35 89.71,98.38 C90.01,96.52 89.87,95.00 89.38,95.00 C88.56,95.00 88.39,92.10 88.18,74.84 C88.14,71.18 87.64,67.89 87.07,67.54 C86.05,66.91 74.34,68.67 72.66,69.71 C72.18,70.01 72.40,70.68 73.14,71.21 C74.07,71.86 73.33,72.00 70.83,71.66 C68.21,71.30 67.00,71.56 66.61,72.58 C66.31,73.36 65.33,74.00 64.44,74.00 C63.55,74.00 61.67,74.90 60.27,76.00 C58.87,77.10 56.47,78.00 54.92,78.00 C51.20,78.00 50.58,79.30 52.52,83.04 C54.40,86.67 53.21,89.00 49.49,89.00 C46.61,89.00 43.31,93.69 44.67,95.84 C45.19,96.67 46.68,97.42 47.97,97.52 C50.61,97.71 54.04,101.36 53.93,103.86 C53.89,104.76 53.50,106.40 53.05,107.50 C52.30,109.37 52.16,109.31 50.93,106.68 C49.82,104.29 49.84,103.72 51.06,102.96 C52.29,102.20 52.24,101.81 50.75,100.32 C49.07,98.65 48.89,98.67 46.80,100.76 L 44.60 102.95 L 46.91 105.40 C48.17,106.75 48.91,108.34 48.54,108.93 C48.17,109.53 48.54,110.27 49.36,110.58 C50.18,110.90 51.55,112.92 52.41,115.08 C54.07,119.21 54.59,119.55 56.98,118.03 C58.22,117.25 58.01,116.62 55.67,114.18 C53.36,111.77 53.15,111.16 54.44,110.66 C55.30,110.33 56.56,110.28 57.25,110.54 C57.94,110.81 59.82,109.79 61.44,108.29 C63.22,106.64 64.13,106.21 63.75,107.21 C63.40,108.12 63.76,109.39 64.56,110.05 C65.35,110.71 66.00,112.14 66.00,113.23 C66.00,114.85 65.54,115.10 63.50,114.59 C60.25,113.77 60.35,114.43 64.00,118.00 C65.77,119.73 67.00,121.97 67.00,123.47 C67.00,126.76 65.22,126.74 64.39,123.43 C63.97,121.75 63.41,121.19 62.77,121.83 C62.13,122.47 60.57,122.30 58.29,121.35 C54.36,119.71 53.55,119.99 54.41,122.71 C55.00,124.57 67.77,131.57 68.76,130.57 C69.05,130.28 68.66,129.30 67.90,128.37 C66.64,126.86 66.81,126.75 69.75,127.18 C71.54,127.44 73.00,127.28 73.00,126.83 C73.00,124.81 76.25,126.28 77.80,128.99 C79.70,132.34 81.71,133.19 79.95,129.91 C78.16,126.56 79.53,126.65 82.42,130.08 C85.42,133.65 85.35,134.99 82.10,136.63 L 79.85 137.76 L 82.83 139.88 C84.47,141.05 86.46,142.00 87.25,142.00 C89.10,142.00 91.72,144.93 92.16,147.50 C92.42,149.02 91.97,149.48 90.25,149.42 C86.40,149.28 87.74,150.52 95.25,154.04 C101.88,157.13 112.00,165.05 112.00,167.14 C112.00,168.36 108.26,168.21 105.80,166.89 C104.14,166.00 104.00,165.61 105.11,164.91 C106.06,164.31 105.39,164.04 103.00,164.05 L 99.50 164.06 L 102.19 166.43 C103.81,167.86 106.79,169.06 109.72,169.46 C114.16,170.07 114.57,170.35 114.53,172.81 C114.51,175.07 114.98,175.55 117.50,175.82 C119.15,175.99 121.20,177.03 122.05,178.13 C123.47,179.95 124.02,180.02 128.25,178.96 C134.24,177.45 139.66,178.10 149.24,181.48 C154.38,183.30 157.88,184.00 159.64,183.55 C162.98,182.72 161.80,181.65 155.75,180.02 C153.14,179.31 151.00,178.41 151.00,178.00 C151.00,177.59 149.24,176.97 147.10,176.63 C144.77,176.26 141.50,174.59 139.00,172.50 C136.70,170.58 134.29,169.00 133.66,168.99 C128.85,168.95 116.00,159.73 116.00,156.33 C116.00,155.49 114.31,152.88 112.25,150.52 C107.95,145.59 104.49,140.00 105.74,140.00 C106.21,140.00 108.29,142.23 110.36,144.95 C122.19,160.46 141.67,172.76 161.23,177.05 L 166.96 178.31 L 171.94 173.65 C175.60,170.23 177.72,169.00 179.96,169.00 C183.67,169.00 183.70,169.39 180.35,174.21 C178.89,176.32 177.99,178.33 178.35,178.68 C178.70,179.03 180.67,179.26 182.72,179.18 C184.77,179.11 188.15,179.50 190.22,180.06 C192.57,180.69 194.65,180.73 195.75,180.15 C196.72,179.63 201.30,179.51 206.00,179.86 L 214.50 180.50 L 214.50 183.50 C214.50,186.19 214.09,186.59 210.50,187.35 C208.30,187.82 204.70,188.81 202.50,189.55 C200.30,190.29 197.28,190.64 195.79,190.34 C194.30,190.03 190.93,190.53 188.29,191.43 C185.66,192.34 178.32,193.74 172.00,194.53 ZM 24.41 74.50 C25.34,78.20 26.84,77.53 27.19,73.25 C27.45,70.10 27.90,69.45 30.00,69.21 C32.00,68.97 32.20,69.12 31.00,69.97 C29.72,70.88 29.92,71.41 32.31,73.52 C35.40,76.26 38.00,76.76 38.00,74.61 C38.00,73.84 39.32,73.03 41.00,72.79 C42.65,72.54 44.00,72.72 44.00,73.17 C44.00,74.76 47.73,73.98 52.60,71.39 C55.88,69.65 60.72,68.33 67.27,67.42 C80.14,65.61 87.78,63.31 90.73,60.36 C94.47,56.62 93.41,54.56 87.56,54.19 C80.96,53.77 77.47,54.65 78.90,56.38 C80.10,57.82 79.39,59.00 77.33,59.00 C76.60,59.00 76.00,58.10 76.00,57.00 C76.00,54.78 75.22,54.65 69.75,55.92 C67.69,56.40 66.00,56.65 66.00,56.48 C66.00,54.92 67.51,53.00 68.73,53.00 C69.94,53.00 70.00,52.71 69.04,51.54 C68.37,50.74 68.16,49.56 68.56,48.91 C69.10,48.04 68.12,47.91 64.77,48.41 L 60.25 49.08 L 60.60 46.13 C60.89,43.59 60.50,43.02 57.82,42.09 C57.67,42.03 57.52,41.98 57.38,41.93 C55.38,41.23 54.56,40.95 54.22,41.23 C54.00,41.43 54.00,41.89 54.00,42.68 C54.00,42.76 54.00,42.84 54.00,42.93 C54.00,43.99 55.22,45.81 56.71,46.99 C58.94,48.74 59.16,49.28 57.96,50.04 C57.16,50.55 55.71,50.98 54.75,50.98 C53.79,50.99 53.00,51.40 53.00,51.88 C53.00,53.15 57.72,53.88 58.83,52.77 C59.40,52.20 60.73,52.82 62.30,54.39 L 64.84 56.93 L 56.17 59.58 C51.40,61.04 45.81,62.47 43.75,62.75 C39.76,63.30 39.28,63.88 41.20,65.80 C41.86,66.46 42.03,67.00 41.58,67.00 C41.13,67.00 41.32,67.69 42.02,68.52 C42.72,69.36 43.02,70.31 42.71,70.63 C41.58,71.76 36.49,69.34 35.53,67.22 C34.46,64.85 31.46,65.01 27.20,67.68 C24.34,69.46 23.60,71.28 24.41,74.50 ZM 75.66 171.50 C77.48,172.45 78.63,172.60 78.85,171.93 C79.28,170.66 76.12,167.00 74.60,167.00 C73.32,166.99 63.00,157.15 63.00,155.93 C63.00,155.48 61.80,154.52 60.34,153.80 C58.65,152.98 57.18,151.04 56.33,148.50 C55.59,146.30 54.09,143.75 52.99,142.84 C51.90,141.93 51.00,140.86 51.00,140.48 C51.00,140.09 48.97,137.08 46.50,133.79 C44.03,130.50 42.00,127.22 42.00,126.51 C42.00,125.80 41.11,124.16 40.03,122.86 C34.69,116.45 41.15,129.50 48.62,140.22 C51.58,144.46 54.00,148.29 54.01,148.72 C54.05,151.95 69.68,168.39 75.66,171.50 ZM 72.86 147.23 C75.41,148.74 77.57,149.97 77.65,149.98 C77.73,149.99 76.83,147.98 75.65,145.52 C74.47,143.05 72.60,140.73 71.50,140.37 L 69.50 139.70 L 71.50 138.92 C72.83,138.40 72.99,138.11 72.00,138.04 C70.80,137.96 70.86,137.67 72.31,136.56 C74.35,135.02 73.86,134.53 69.37,133.57 C65.52,132.74 62.17,135.30 64.09,137.61 C64.72,138.37 64.85,139.01 64.37,139.03 C63.89,139.05 64.53,139.93 65.79,140.98 C67.06,142.03 68.12,143.25 68.15,143.70 C68.19,144.14 70.31,145.73 72.86,147.23 ZM 76.05 157.92 C79.00,159.12 83.22,158.89 83.68,157.49 C84.15,156.05 75.92,153.31 73.10,153.98 C71.11,154.45 70.96,154.73 72.17,155.73 C72.96,156.38 74.71,157.37 76.05,157.92 ZM 71.46 110.65 C70.45,111.39 69.31,112.00 68.93,112.00 C67.91,112.00 66.33,109.79 65.56,107.26 C65.00,105.43 65.18,105.13 66.55,105.66 C68.02,106.22 68.08,106.00 67.05,103.90 C66.21,102.20 66.94,102.63 69.58,105.40 C73.10,109.09 73.20,109.38 71.46,110.65 ZM 167.45 182.92 C168.13,184.02 183.77,184.19 184.44,183.10 C184.74,182.61 181.42,181.89 177.06,181.51 C169.42,180.83 166.43,181.27 167.45,182.92 ZM 82.80 107.28 C82.88,109.32 82.61,111.00 82.21,111.00 C80.71,111.00 79.00,106.90 79.00,103.33 C79.00,99.69 79.03,99.66 80.83,101.59 C81.84,102.67 82.72,105.22 82.80,107.28 ZM 85.54 81.88 C84.81,84.18 83.51,84.63 82.46,82.94 C81.52,81.41 82.89,75.00 84.15,75.00 C84.74,75.00 84.93,75.75 84.57,76.67 C84.22,77.59 84.45,78.66 85.07,79.05 C85.73,79.45 85.93,80.65 85.54,81.88 ZM 42.03 24.94 C41.01,26.84 41.20,27.00 44.54,27.00 C47.44,27.00 48.08,26.65 47.81,25.25 C47.32,22.67 43.36,22.45 42.03,24.94 ZM 136.54 184.06 C137.43,185.51 139.00,184.16 139.00,181.94 C139.00,179.77 137.80,179.50 134.93,181.04 C132.69,182.24 132.29,184.49 134.47,183.65 C135.28,183.34 136.21,183.53 136.54,184.06 ZM 57.00 99.04 C57.00,101.68 55.83,101.51 52.95,98.44 C50.96,96.33 50.87,96.01 52.44,96.61 C53.82,97.15 54.12,97.00 53.54,96.07 C52.92,95.07 53.21,95.04 54.88,95.94 C56.05,96.56 57.00,97.95 57.00,99.04 ZM 64.00 94.49 C64.00,95.96 57.29,93.20 56.62,91.45 C56.31,90.65 56.39,90.00 56.78,90.00 C57.79,90.01 64.00,93.86 64.00,94.49 ZM 64.75 87.75 C65.01,89.05 64.38,89.20 62.25,88.34 C60.92,87.80 60.49,84.99 61.75,85.02 C62.98,85.04 64.48,86.41 64.75,87.75 ZM 52.02 67.52 C52.72,68.36 53.11,69.21 52.89,69.40 C52.25,69.98 48.00,67.76 48.00,66.85 C48.00,65.44 50.67,65.89 52.02,67.52 ZM 45.22 82.83 C44.92,83.74 45.51,84.06 47.06,83.83 C48.32,83.65 49.54,82.90 49.78,82.17 C50.08,81.26 49.49,80.94 47.94,81.17 C46.68,81.35 45.46,82.10 45.22,82.83 ZM 49.34 45.81 C46.53,46.83 46.54,46.84 50.45,46.92 C53.35,46.98 54.10,46.70 53.29,45.89 C52.50,45.10 51.35,45.08 49.34,45.81 ZM 107.50 176.00 C107.84,176.55 109.10,176.99 110.31,176.98 C112.09,176.97 112.22,176.79 111.00,176.00 C109.03,174.73 106.71,174.73 107.50,176.00 ZM 109.50 174.00 C109.84,174.55 110.32,175.00 110.56,175.00 C110.80,175.00 111.00,174.55 111.00,174.00 C111.00,173.45 110.52,173.00 109.94,173.00 C109.36,173.00 109.16,173.45 109.50,174.00 Z" fill="rgb(5,5,5)"/>
<path d="M 154.72 195.89 C147.42,196.14 141.96,195.87 142.50,195.00 C142.84,194.45 146.69,194.00 151.06,194.00 C155.97,194.00 159.00,193.60 159.00,192.94 C159.00,193.52 157.09,194.03 154.75,194.07 C152.41,194.11 149.60,194.53 148.50,195.00 C146.79,195.74 149.72,196.02 154.72,195.89 ZM 107.50 176.00 C106.71,174.73 109.03,174.73 111.00,176.00 C112.22,176.79 112.09,176.97 110.31,176.98 C109.10,176.99 107.84,176.55 107.50,176.00 ZM 109.50 174.00 C109.16,173.45 109.36,173.00 109.94,173.00 C110.52,173.00 111.00,173.45 111.00,174.00 C111.00,174.55 110.80,175.00 110.56,175.00 C110.32,175.00 109.84,174.55 109.50,174.00 Z" fill="rgb(100,100,100)"/>
<path d="M 88.64 92.64 C88.50,91.57 88.40,90.22 88.36,88.75 C88.20,81.14 87.89,79.00 86.94,79.00 C86.59,79.00 86.08,79.89 85.71,81.06 C85.82,80.15 85.58,79.36 85.07,79.05 C84.45,78.66 84.22,77.59 84.57,76.67 C84.69,76.36 84.75,76.06 84.75,75.81 C85.04,76.38 85.82,76.62 86.56,76.34 C87.46,75.99 87.97,73.72 88.01,71.55 C88.11,72.55 88.17,73.68 88.18,74.84 C88.30,84.88 88.41,90.06 88.64,92.64 ZM 151.75 192.03 C156.27,191.94 159.00,192.28 159.00,192.94 C159.00,193.60 155.97,194.00 151.06,194.00 C146.69,194.00 142.84,194.45 142.50,195.00 C142.84,194.45 145.76,194.00 149.00,194.00 C152.24,194.00 155.16,193.55 155.50,192.99 C155.90,192.36 153.99,192.02 150.31,192.08 C142.58,192.21 136.00,192.04 130.53,191.56 C136.25,192.04 143.25,192.19 151.75,192.03 ZM 83.04 76.46 C83.39,75.18 83.89,74.57 84.34,75.03 C84.28,75.01 84.22,75.00 84.15,75.00 C83.77,75.00 83.37,75.59 83.04,76.46 ZM 79.73 68.06 C76.58,68.56 73.44,69.23 72.66,69.71 C73.46,69.21 76.59,68.55 79.73,68.06 ZM 87.14 67.60 C87.11,67.58 87.08,67.55 87.05,67.53 C87.06,67.54 87.06,67.54 87.07,67.54 C87.09,67.56 87.12,67.58 87.14,67.60 Z" fill="rgb(174,174,174)"/>
<path d="M 0.00 112.50 L 0.00 0.00 L 112.50 0.00 L 225.00 0.00 L 225.00 112.50 L 225.00 225.00 L 112.50 225.00 L 0.00 225.00 L 0.00 112.50 ZM 172.00 194.53 C178.32,193.74 185.66,192.34 188.29,191.43 C190.93,190.53 194.30,190.03 195.79,190.34 C197.28,190.64 200.30,190.29 202.50,189.55 C204.70,188.81 208.30,187.82 210.50,187.35 C214.09,186.59 214.50,186.19 214.50,183.50 L 214.50 180.50 L 206.00 179.86 C201.30,179.51 196.72,179.63 195.75,180.15 C194.65,180.73 192.57,180.69 190.22,180.06 C188.15,179.50 184.77,179.11 182.72,179.18 C180.67,179.26 178.70,179.03 178.35,178.68 C177.99,178.33 178.89,176.32 180.35,174.21 C183.70,169.39 183.67,169.00 179.96,169.00 C177.72,169.00 175.60,170.23 171.94,173.65 L 166.96 178.31 L 161.23 177.05 C141.67,172.76 122.19,160.46 110.36,144.95 C108.29,142.23 106.21,140.00 105.74,140.00 C104.49,140.00 107.95,145.59 112.25,150.52 C114.31,152.88 116.00,155.49 116.00,156.33 C116.00,159.73 128.85,168.95 133.66,168.99 C134.29,169.00 136.70,170.58 139.00,172.50 C141.50,174.59 144.77,176.26 147.10,176.63 C149.24,176.97 151.00,177.59 151.00,178.00 C151.00,178.41 153.14,179.31 155.75,180.02 C161.80,181.65 162.98,182.72 159.64,183.55 C157.88,184.00 154.38,183.30 149.24,181.48 C139.66,178.10 134.24,177.45 128.25,178.96 C124.02,180.02 123.47,179.95 122.05,178.13 C121.20,177.03 119.15,175.99 117.50,175.82 C114.98,175.55 114.51,175.07 114.53,172.81 C114.57,170.35 114.16,170.07 109.72,169.46 C106.79,169.06 103.81,167.86 102.19,166.43 L 99.50 164.06 L 103.00 164.05 C105.39,164.04 106.06,164.31 105.11,164.91 C104.00,165.61 104.14,166.00 105.80,166.89 C108.26,168.21 112.00,168.36 112.00,167.14 C112.00,165.05 101.88,157.13 95.25,154.04 C87.74,150.52 86.40,149.28 90.25,149.42 C91.97,149.48 92.42,149.02 92.16,147.50 C91.72,144.93 89.10,142.00 87.25,142.00 C86.46,142.00 84.47,141.05 82.83,139.88 L 79.85 137.76 L 82.10 136.63 C85.35,134.99 85.42,133.65 82.42,130.08 C79.53,126.65 78.16,126.56 79.95,129.91 C81.71,133.19 79.70,132.34 77.80,128.99 C76.25,126.28 73.00,124.81 73.00,126.83 C73.00,127.28 71.54,127.44 69.75,127.18 C66.81,126.75 66.64,126.86 67.90,128.37 C68.66,129.30 69.05,130.28 68.76,130.57 C67.77,131.57 55.00,124.57 54.41,122.71 C53.55,119.99 54.36,119.71 58.29,121.35 C60.57,122.30 62.13,122.47 62.77,121.83 C63.41,121.19 63.97,121.75 64.39,123.43 C65.22,126.74 67.00,126.76 67.00,123.47 C67.00,121.97 65.77,119.73 64.00,118.00 C60.35,114.43 60.25,113.77 63.50,114.59 C65.54,115.10 66.00,114.85 66.00,113.23 C66.00,112.14 65.35,110.71 64.56,110.05 C63.76,109.39 63.40,108.12 63.75,107.21 C64.13,106.21 63.22,106.64 61.44,108.29 C59.82,109.79 57.94,110.81 57.25,110.54 C56.56,110.28 55.30,110.33 54.44,110.66 C53.15,111.16 53.36,111.77 55.67,114.18 C58.01,116.62 58.22,117.25 56.98,118.03 C54.59,119.55 54.07,119.21 52.41,115.08 C51.55,112.92 50.18,110.90 49.36,110.58 C48.54,110.27 48.17,109.53 48.54,108.93 C48.91,108.34 48.17,106.75 46.91,105.40 L 44.60 102.95 L 46.80 100.76 C48.89,98.67 49.07,98.65 50.75,100.32 C52.24,101.81 52.29,102.20 51.06,102.96 C49.84,103.72 49.82,104.29 50.93,106.68 C52.16,109.31 52.30,109.37 53.05,107.50 C53.50,106.40 53.89,104.76 53.93,103.86 C54.04,101.36 50.61,97.71 47.97,97.52 C46.68,97.42 45.19,96.67 44.67,95.84 C43.31,93.69 46.61,89.00 49.49,89.00 C53.21,89.00 54.40,86.67 52.52,83.04 C50.58,79.30 51.20,78.00 54.92,78.00 C56.47,78.00 58.87,77.10 60.27,76.00 C61.67,74.90 63.55,74.00 64.44,74.00 C65.33,74.00 66.31,73.36 66.61,72.58 C67.00,71.56 68.21,71.30 70.83,71.66 C73.33,72.00 74.07,71.86 73.14,71.21 C72.40,70.68 72.18,70.01 72.66,69.71 C74.29,68.70 86.03,66.90 87.02,67.51 C88.58,68.48 88.21,75.71 86.56,76.34 C85.78,76.64 84.94,76.35 84.70,75.69 C83.94,73.57 82.74,75.83 82.62,79.61 C82.48,83.92 84.62,85.35 85.57,81.57 C85.93,80.16 86.54,79.00 86.94,79.00 C87.89,79.00 88.20,81.14 88.36,88.75 C88.44,92.19 88.90,95.00 89.38,95.00 C89.87,95.00 90.01,96.52 89.71,98.38 C89.39,100.35 89.65,102.26 90.33,102.95 C91.22,103.86 91.09,104.44 89.75,105.43 C88.79,106.14 88.04,107.35 88.08,108.11 C88.14,109.13 88.29,109.16 88.66,108.25 C89.75,105.55 90.79,107.35 92.98,115.75 C94.24,120.56 95.67,125.28 96.16,126.23 C96.72,127.32 96.62,128.64 95.89,129.80 C94.94,131.33 95.18,132.09 97.31,134.22 C98.72,135.63 100.07,136.60 100.30,136.37 C100.53,136.14 101.28,136.64 101.98,137.48 C105.00,141.11 104.82,138.50 101.66,132.75 C94.66,120.00 92.26,109.02 89.97,79.23 C88.54,60.73 88.93,60.26 102.24,64.06 C105.84,65.08 107.27,65.13 108.15,64.25 C109.02,63.38 108.66,62.80 106.65,61.89 C105.19,61.22 104.00,60.13 104.00,59.46 C104.00,58.33 97.67,55.17 92.00,53.49 C87.68,52.20 77.55,46.67 76.25,44.88 C75.56,43.94 72.67,42.67 69.82,42.05 C63.65,40.73 62.00,39.54 62.00,36.43 C62.00,34.30 61.52,34.07 56.25,33.80 L 50.50 33.50 L 50.18 29.02 C49.80,23.62 48.62,22.00 45.08,22.00 C39.68,22.00 38.22,27.09 42.54,30.84 C45.42,33.35 45.10,34.41 40.29,38.43 C37.46,40.79 37.22,41.38 38.19,43.51 C39.61,46.63 37.13,50.69 33.24,51.62 C31.73,51.98 29.94,52.72 29.25,53.26 C27.64,54.53 27.64,57.71 29.25,58.26 C29.94,58.49 29.02,59.45 27.21,60.39 C23.57,62.28 20.01,67.33 20.00,70.62 C20.00,71.79 20.92,74.81 22.03,77.34 C23.15,79.87 25.62,88.14 27.53,95.72 C31.39,111.09 33.32,116.40 39.78,129.50 C46.40,142.92 54.49,154.48 64.00,164.09 C80.90,181.18 99.79,190.50 124.43,193.93 C128.24,194.47 131.83,194.60 132.41,194.24 C133.00,193.88 128.20,192.80 121.75,191.83 C111.73,190.33 97.68,186.11 96.00,184.10 C95.72,183.77 93.84,182.66 91.81,181.62 C89.78,180.59 87.88,179.13 87.59,178.37 C86.86,176.46 87.16,176.55 95.13,180.56 C99.02,182.52 102.44,183.90 102.72,183.61 C103.01,183.33 103.89,183.75 104.69,184.55 C105.49,185.35 107.14,186.00 108.36,186.00 C109.58,186.00 112.30,186.88 114.40,187.95 C120.45,191.03 132.23,192.39 150.31,192.08 C153.99,192.02 155.90,192.36 155.50,192.99 C155.16,193.55 152.24,194.00 149.00,194.00 C145.76,194.00 142.84,194.45 142.50,195.00 C141.57,196.50 158.55,196.23 172.00,194.53 ZM 71.46 110.65 C73.20,109.38 73.10,109.09 69.58,105.40 C66.94,102.63 66.21,102.20 67.05,103.90 C68.08,106.00 68.02,106.22 66.55,105.66 C65.18,105.13 65.00,105.43 65.56,107.26 C66.33,109.79 67.91,112.00 68.93,112.00 C69.31,112.00 70.45,111.39 71.46,110.65 ZM 82.80 107.28 C82.72,105.22 81.84,102.67 80.83,101.59 C79.03,99.66 79.00,99.69 79.00,103.33 C79.00,106.90 80.71,111.00 82.21,111.00 C82.61,111.00 82.88,109.32 82.80,107.28 ZM 57.00 99.04 C57.00,97.95 56.05,96.56 54.88,95.94 C53.21,95.04 52.92,95.07 53.54,96.07 C54.12,97.00 53.82,97.15 52.44,96.61 C50.87,96.01 50.96,96.33 52.95,98.44 C55.83,101.51 57.00,101.68 57.00,99.04 ZM 64.00 94.49 C64.00,93.86 57.79,90.01 56.78,90.00 C56.39,90.00 56.31,90.65 56.62,91.45 C57.29,93.20 64.00,95.96 64.00,94.49 ZM 64.75 87.75 C64.48,86.41 62.98,85.04 61.75,85.02 C60.49,84.99 60.92,87.80 62.25,88.34 C64.38,89.20 65.01,89.05 64.75,87.75 ZM 136.54 184.06 C136.21,183.53 135.28,183.34 134.47,183.65 C132.29,184.49 132.69,182.24 134.93,181.04 C137.80,179.50 139.00,179.77 139.00,181.94 C139.00,184.16 137.43,185.51 136.54,184.06 ZM 167.45 182.92 C166.43,181.27 169.42,180.83 177.06,181.51 C181.42,181.89 184.74,182.61 184.44,183.10 C183.77,184.19 168.13,184.02 167.45,182.92 ZM 75.66 171.50 C69.68,168.39 54.05,151.95 54.01,148.72 C54.00,148.29 51.58,144.46 48.62,140.22 C41.15,129.50 34.69,116.45 40.03,122.86 C41.11,124.16 42.00,125.80 42.00,126.51 C42.00,127.22 44.03,130.50 46.50,133.79 C48.97,137.08 51.00,140.09 51.00,140.48 C51.00,140.86 51.90,141.93 52.99,142.84 C54.09,143.75 55.59,146.30 56.33,148.50 C57.18,151.04 58.65,152.98 60.34,153.80 C61.80,154.52 63.00,155.48 63.00,155.93 C63.00,157.15 73.32,166.99 74.60,167.00 C76.12,167.00 79.28,170.66 78.85,171.93 C78.63,172.60 77.48,172.45 75.66,171.50 ZM 76.05 157.92 C74.71,157.37 72.96,156.38 72.17,155.73 C70.96,154.73 71.11,154.45 73.10,153.98 C75.92,153.31 84.15,156.05 83.68,157.49 C83.22,158.89 79.00,159.12 76.05,157.92 ZM 72.86 147.23 C70.31,145.73 68.19,144.14 68.15,143.70 C68.12,143.25 67.06,142.03 65.79,140.98 C64.53,139.93 63.89,139.05 64.37,139.03 C64.85,139.01 64.72,138.37 64.09,137.61 C62.17,135.30 65.52,132.74 69.37,133.57 C73.86,134.53 74.35,135.02 72.31,136.56 C70.86,137.67 70.80,137.96 72.00,138.04 C72.99,138.11 72.83,138.40 71.50,138.92 L 69.50 139.70 L 71.50 140.37 C72.60,140.73 74.47,143.05 75.65,145.52 C76.83,147.98 77.73,149.99 77.65,149.98 C77.57,149.97 75.41,148.74 72.86,147.23 ZM 45.22 82.83 C45.46,82.10 46.68,81.35 47.94,81.17 C49.49,80.94 50.08,81.26 49.78,82.17 C49.54,82.90 48.32,83.65 47.06,83.83 C45.51,84.06 44.92,83.74 45.22,82.83 ZM 24.41 74.50 C23.60,71.28 24.34,69.46 27.20,67.68 C31.46,65.01 34.46,64.85 35.53,67.22 C36.49,69.34 41.58,71.76 42.71,70.63 C43.02,70.31 42.72,69.36 42.02,68.52 C41.32,67.69 41.13,67.00 41.58,67.00 C42.03,67.00 41.86,66.46 41.20,65.80 C39.28,63.88 39.76,63.30 43.75,62.75 C45.81,62.47 51.40,61.04 56.17,59.58 L 64.84 56.93 L 62.30 54.39 C60.73,52.82 59.40,52.20 58.83,52.77 C57.72,53.88 53.00,53.15 53.00,51.88 C53.00,51.40 53.79,50.99 54.75,50.98 C55.71,50.98 57.16,50.55 57.96,50.04 C59.16,49.28 58.94,48.74 56.71,46.99 C55.22,45.81 54.00,43.99 54.00,42.93 C54.00,40.67 53.84,40.70 57.82,42.09 C60.50,43.02 60.89,43.59 60.60,46.13 L 60.25 49.08 L 64.77 48.41 C68.12,47.91 69.10,48.04 68.56,48.91 C68.16,49.56 68.37,50.74 69.04,51.54 C70.00,52.71 69.94,53.00 68.73,53.00 C67.51,53.00 66.00,54.92 66.00,56.48 C66.00,56.65 67.69,56.40 69.75,55.92 C75.22,54.65 76.00,54.78 76.00,57.00 C76.00,58.10 76.60,59.00 77.33,59.00 C79.39,59.00 80.10,57.82 78.90,56.38 C77.47,54.65 80.96,53.77 87.56,54.19 C93.41,54.56 94.47,56.62 90.73,60.36 C87.78,63.31 80.14,65.61 67.27,67.42 C60.72,68.33 55.88,69.65 52.60,71.39 C47.73,73.98 44.00,74.76 44.00,73.17 C44.00,72.72 42.65,72.54 41.00,72.79 C39.32,73.03 38.00,73.84 38.00,74.61 C38.00,76.76 35.40,76.26 32.31,73.52 C29.92,71.41 29.72,70.88 31.00,69.97 C32.20,69.12 32.00,68.97 30.00,69.21 C27.90,69.45 27.45,70.10 27.19,73.25 C26.84,77.53 25.34,78.20 24.41,74.50 ZM 52.02 67.52 C50.67,65.89 48.00,65.44 48.00,66.85 C48.00,67.76 52.25,69.98 52.89,69.40 C53.11,69.21 52.72,68.36 52.02,67.52 ZM 49.34 45.81 C51.35,45.08 52.50,45.10 53.29,45.89 C54.10,46.70 53.35,46.98 50.45,46.92 C46.54,46.84 46.53,46.83 49.34,45.81 ZM 42.03 24.94 C43.36,22.45 47.32,22.67 47.81,25.25 C48.08,26.65 47.44,27.00 44.54,27.00 C41.20,27.00 41.01,26.84 42.03,24.94 Z" fill="rgb(254,254,254)"/>
</g>
</svg>