<svg xmlns="http://www.w3.org/2000/svg" width="225" height="225" viewBox="0 0 225 225">
<g>
<path d="M 82.00 130.37 L 82.00 140.00 L 76.25 139.94 C63.91,139.80 59.01,134.51 56.81,118.94 C54.82,104.88 58.49,92.35 65.96,87.70 C69.28,85.64 70.88,85.48 91.31,85.18 C111.09,84.89 113.09,84.70 112.80,83.18 C112.52,81.72 110.67,81.46 98.74,81.22 L 85.00 80.94 L 85.00 73.55 C85.00,67.05 85.31,65.78 87.59,63.08 C91.42,58.52 99.01,56.56 112.50,56.63 C121.72,56.68 124.46,57.08 129.41,59.10 C138.72,62.88 139.44,64.43 139.82,81.45 C140.19,97.82 139.31,102.37 134.95,106.55 L 131.87 109.50 L 112.19 110.04 C90.26,110.65 87.85,111.27 84.10,117.34 C82.35,120.17 82.00,122.33 82.00,130.37 ZM 93.96 73.17 C95.20,74.18 96.57,75.00 97.00,75.00 C97.43,75.00 98.80,74.18 100.04,73.17 C102.77,70.96 102.16,66.50 99.00,65.50 C93.56,63.77 89.67,69.70 93.96,73.17 Z" fill="rgb(58,115,162)"/>
<path d="M 106.14 166.46 L 109.50 167.92 L 106.50 167.87 C103.07,167.81 95.44,165.85 92.49,164.26 C91.40,163.67 89.38,161.98 88.00,160.51 C85.51,157.84 85.50,157.77 85.73,140.27 C86.00,120.53 86.34,119.40 92.97,116.01 C96.47,114.23 98.86,114.00 113.99,114.00 C133.19,114.00 136.23,113.29 140.10,107.86 C142.11,105.05 142.58,102.94 143.00,95.00 L 143.50 85.50 L 151.17 85.50 C158.06,85.50 159.05,85.75 160.96,87.96 C164.89,92.49 166.91,96.56 167.44,101.05 L 167.96 105.50 L 166.36 100.50 C163.26,90.85 155.34,86.78 151.80,93.01 C150.86,94.65 149.46,96.00 148.69,96.00 C147.74,96.00 147.08,97.67 146.68,101.08 C145.86,108.01 140.38,113.71 133.66,114.63 C128.20,115.38 128.05,117.08 133.32,118.48 C135.43,119.04 137.00,119.95 136.82,120.50 C136.65,121.05 135.82,121.33 135.00,121.13 C132.39,120.49 125.55,120.24 124.22,120.75 C123.48,121.03 123.19,122.03 123.53,123.10 C124.00,124.58 123.26,125.31 120.01,126.61 C117.27,127.71 116.07,128.72 116.44,129.63 C116.75,130.38 117.27,131.68 117.61,132.50 C118.06,133.61 117.47,134.03 115.36,134.12 C108.64,134.42 137.15,137.98 146.29,137.99 C154.10,138.00 159.23,135.89 163.37,130.97 C166.79,126.91 166.78,128.29 163.37,132.76 C158.99,138.50 156.55,139.00 133.03,139.00 C112.67,139.00 112.00,139.06 112.00,141.00 C112.00,142.90 112.67,143.00 126.00,143.00 L 140.00 143.00 L 140.00 150.67 C140.00,154.88 139.68,158.01 139.29,157.62 C138.90,157.23 138.56,154.58 138.54,151.72 C138.48,144.46 136.30,143.45 123.96,144.95 C116.41,145.87 114.52,145.80 112.08,144.54 C110.49,143.72 108.94,142.47 108.65,141.77 C108.28,140.88 107.75,141.10 106.89,142.50 C104.97,145.63 97.00,153.00 95.54,153.00 C94.81,153.00 93.93,151.88 93.59,150.50 C93.24,149.12 92.24,148.00 91.35,148.00 C90.04,148.00 89.86,148.71 90.36,151.75 C90.70,153.81 90.98,156.73 90.99,158.23 C91.00,160.40 91.81,161.37 94.96,162.98 C97.14,164.09 99.79,165.00 100.85,165.00 C101.90,165.00 104.28,165.66 106.14,166.46 ZM 125.00 158.00 C126.10,159.10 126.58,160.00 126.07,160.00 C124.86,160.00 121.00,155.08 121.00,153.54 C121.00,151.84 125.33,148.00 127.24,148.00 C129.25,148.00 135.00,152.75 135.00,154.41 C135.00,156.29 130.32,160.29 128.82,159.69 C127.93,159.33 128.06,159.13 129.21,159.08 C132.11,158.95 133.41,155.27 131.55,152.43 C129.72,149.64 126.85,149.29 124.57,151.57 C122.46,153.68 122.59,155.59 125.00,158.00 ZM 169.00 112.30 C169.00,116.61 168.31,117.09 167.39,113.43 C167.03,111.97 167.24,110.36 167.87,109.73 C168.71,108.89 169.00,109.56 169.00,112.30 Z" fill="rgb(252,214,78)"/>
<path d="M 167.40 100.73 C167.63,101.91 167.83,103.20 168.01,104.61 C168.22,106.25 168.37,107.84 168.46,109.39 C168.31,109.37 168.11,109.49 167.87,109.73 C167.24,110.36 167.03,111.97 167.39,113.43 C167.83,115.17 168.22,115.98 168.50,115.87 C168.24,120.75 167.31,125.04 165.72,128.60 C165.37,128.77 164.59,129.52 163.37,130.97 C159.23,135.89 154.10,138.00 146.29,137.99 C137.15,137.98 108.64,134.42 115.36,134.12 C117.47,134.03 118.06,133.61 117.61,132.50 C117.27,131.68 116.75,130.38 116.44,129.63 C116.07,128.72 117.27,127.71 120.01,126.61 C123.26,125.31 124.00,124.58 123.53,123.10 C123.19,122.03 123.48,121.03 124.22,120.75 C125.55,120.24 132.39,120.49 135.00,121.13 C135.82,121.33 136.65,121.05 136.82,120.50 C137.00,119.95 135.43,119.04 133.32,118.48 C128.05,117.08 128.20,115.38 133.66,114.63 C140.38,113.71 145.86,108.01 146.68,101.08 C147.08,97.67 147.74,96.00 148.69,96.00 C149.46,96.00 150.86,94.65 151.80,93.01 C155.34,86.78 163.26,90.85 166.36,100.50 L 167.96 105.50 L 167.44 101.05 C167.42,100.94 167.41,100.83 167.40,100.73 ZM 106.14 166.46 C104.28,165.66 101.90,165.00 100.85,165.00 C99.79,165.00 97.14,164.09 94.96,162.98 C91.81,161.37 91.00,160.40 90.99,158.23 C90.98,156.73 90.70,153.81 90.36,151.75 C89.86,148.71 90.04,148.00 91.35,148.00 C92.24,148.00 93.24,149.12 93.59,150.50 C93.93,151.88 94.81,153.00 95.54,153.00 C97.00,153.00 104.97,145.63 106.89,142.50 C107.75,141.10 108.28,140.88 108.65,141.77 C108.94,142.47 110.49,143.72 112.08,144.54 C114.52,145.80 116.41,145.87 123.96,144.95 C136.30,143.45 138.48,144.46 138.54,151.72 C138.56,154.58 138.90,157.23 139.29,157.62 C139.68,158.01 140.00,154.89 140.00,150.68 C140.00,158.12 139.94,158.29 136.29,161.63 C134.26,163.49 130.99,165.52 129.04,166.13 C125.56,167.23 116.28,167.75 108.70,167.58 ZM 125.00 158.00 C124.99,157.99 124.97,157.97 124.96,157.96 C126.01,159.00 127.19,159.43 128.29,159.41 C128.37,159.48 128.55,159.58 128.82,159.69 C130.32,160.29 135.00,156.29 135.00,154.41 C135.00,152.75 129.25,148.00 127.24,148.00 C125.33,148.00 121.00,151.84 121.00,153.54 C121.00,155.08 124.86,160.00 126.07,160.00 C126.58,160.00 126.10,159.10 125.00,158.00 ZM 100.84 167.01 C100.11,166.90 99.49,166.77 98.99,166.63 C97.36,166.16 96.02,165.73 94.86,165.28 C96.60,165.91 98.76,166.53 100.84,167.01 ZM 130.28 158.85 C131.44,158.18 132.27,156.98 132.41,155.56 C132.31,157.04 131.54,158.34 130.28,158.85 ZM 91.04 163.27 C90.01,162.53 89.06,161.65 88.00,160.51 C88.89,161.46 90.04,162.49 91.04,163.27 ZM 160.71 135.68 C159.04,137.08 156.97,137.90 153.31,138.37 C156.94,137.90 159.02,137.08 160.71,135.68 ZM 163.98 91.91 C163.13,90.62 162.13,89.31 160.96,87.96 C162.16,89.33 163.15,90.62 163.98,91.91 ZM 123.13 154.00 C123.26,153.20 123.74,152.40 124.57,151.57 C123.75,152.40 123.26,153.19 123.13,154.00 Z" fill="rgb(253,208,63)"/>
<path d="M 0.00 112.50 L 0.00 0.00 L 112.50 0.00 L 225.00 0.00 L 225.00 112.50 L 225.00 225.00 L 112.50 225.00 L 0.00 225.00 L 0.00 112.50 ZM 129.04 166.13 C130.99,165.52 134.26,163.49 136.29,161.63 C139.95,158.28 140.00,158.12 140.00,150.62 L 140.00 143.00 L 126.00 143.00 C112.67,143.00 112.00,142.90 112.00,141.00 C112.00,139.06 112.67,139.00 133.03,139.00 C156.49,139.00 159.04,138.48 163.24,132.86 C167.89,126.64 169.56,116.78 168.01,104.61 C167.04,96.94 165.41,93.09 160.96,87.96 C159.05,85.75 158.06,85.50 151.17,85.50 L 143.50 85.50 L 143.00 95.00 C142.58,102.94 142.11,105.05 140.10,107.86 C136.23,113.29 133.19,114.00 113.99,114.00 C98.86,114.00 96.47,114.23 92.97,116.01 C86.34,119.40 86.00,120.53 85.73,140.27 C85.50,157.77 85.51,157.84 88.00,160.51 C91.05,163.78 93.16,164.95 98.99,166.63 C104.29,168.15 123.64,167.83 129.04,166.13 ZM 82.00 130.37 C82.00,122.33 82.35,120.17 84.10,117.34 C87.85,111.27 90.26,110.65 112.19,110.04 L 131.87 109.50 L 134.95 106.55 C139.31,102.37 140.19,97.82 139.82,81.45 C139.44,64.43 138.72,62.88 129.41,59.10 C124.46,57.08 121.72,56.68 112.50,56.63 C99.01,56.56 91.42,58.52 87.59,63.08 C85.31,65.78 85.00,67.05 85.00,73.55 L 85.00 80.94 L 98.74 81.22 C110.67,81.46 112.52,81.72 112.80,83.18 C113.09,84.70 111.09,84.89 91.31,85.18 C70.88,85.48 69.28,85.64 65.96,87.70 C58.49,92.35 54.82,104.88 56.81,118.94 C59.01,134.51 63.91,139.80 76.25,139.94 L 82.00 140.00 L 82.00 130.37 ZM 124.93 157.93 C122.59,155.59 122.48,153.66 124.57,151.57 C126.85,149.29 129.72,149.64 131.55,152.43 C134.63,157.14 128.89,161.89 124.93,157.93 ZM 93.96 73.17 C89.67,69.70 93.56,63.77 99.00,65.50 C102.16,66.50 102.77,70.96 100.04,73.17 C98.80,74.18 97.43,75.00 97.00,75.00 C96.57,75.00 95.20,74.18 93.96,73.17 Z" fill="rgb(254,254,254)"/>
</g>
</svg>